<?xml version="1.0" encoding="UTF-8" standalone="no"?>
<!-- Created with Inkscape (http://www.inkscape.org/) -->

<svg
   xmlns:osb="http://www.openswatchbook.org/uri/2009/osb"
   xmlns:dc="http://purl.org/dc/elements/1.1/"
   xmlns:cc="http://creativecommons.org/ns#"
   xmlns:rdf="http://www.w3.org/1999/02/22-rdf-syntax-ns#"
   xmlns:svg="http://www.w3.org/2000/svg"
   xmlns="http://www.w3.org/2000/svg"
   xmlns:sodipodi="http://sodipodi.sourceforge.net/DTD/sodipodi-0.dtd"
   xmlns:inkscape="http://www.inkscape.org/namespaces/inkscape"
   width="744.09448819"
   height="1052.3622047"
   id="svg2"
   version="1.1"
   inkscape:version="0.48.4 r9939"
   sodipodi:docname="logo_mockup_2.svg">
  <defs
     id="defs4">
    <linearGradient
       id="linearGradient3777"
       inkscape:collect="always"
       osb:paint="gradient">
      <stop
         id="stop3779"
         offset="0"
         style="stop-color:#000000;stop-opacity:1;" />
      <stop
         id="stop3781"
         offset="1"
         style="stop-color:#000000;stop-opacity:0;" />
    </linearGradient>
  </defs>
  <sodipodi:namedview
     id="base"
     pagecolor="#ffffff"
     bordercolor="#666666"
     borderopacity="1.0"
     inkscape:pageopacity="0.0"
     inkscape:pageshadow="2"
     inkscape:zoom="0.70710678"
     inkscape:cx="314.88548"
     inkscape:cy="548.19956"
     inkscape:document-units="px"
     inkscape:current-layer="layer1"
     showgrid="false"
     inkscape:snap-bbox="false"
     inkscape:window-width="1680"
     inkscape:window-height="1026"
     inkscape:window-x="1920"
     inkscape:window-y="24"
     inkscape:window-maximized="1" />
  <metadata
     id="metadata7">
    <rdf:RDF>
      <cc:Work
         rdf:about="">
        <dc:format>image/svg+xml</dc:format>
        <dc:type
           rdf:resource="http://purl.org/dc/dcmitype/StillImage" />
      </cc:Work>
    </rdf:RDF>
  </metadata>
  <g
     inkscape:label="Layer 1"
     inkscape:groupmode="layer"
     id="layer1">
    <path
       style="fill:#bbd2e0;fill-opacity:1;stroke:#a7a7af;stroke-width:15;stroke-linejoin:miter;stroke-miterlimit:4;stroke-dasharray:none;stroke-opacity:0.94117647"
       d="m 388.23679,257.68267 c -137.70857,0 -249.8125,114.35393 -248.5625,248.5625 l 0.0312,0.0312 0,248.53125 248.53125,0 c 0.19763,0 0.39604,6.3e-4 0.59375,0 117.02752,-0.37309 247.96875,-111.08619 247.96875,-248.5625 0,-137.70857 -110.85393,-248.5625 -248.5625,-248.5625 z"
       id="rect5243"
       inkscape:connector-curvature="0" />
    <path
       style="fill:#ffffff"
       d="M 475 392.875 C 470.04724 392.83235 464.90473 393.26757 459.59375 394.15625 C 451.259 395.5509 430.15562 396.87661 412.6875 397.09375 C 385.31003 397.43402 379.15336 398.1131 368.03125 402.03125 C 352.40801 407.53512 346.43468 410.52622 338.96875 416.625 C 334.52645 420.25381 329.02679 421.78015 313.90625 423.625 C 278.23122 427.9777 248.67088 441.95575 225.21875 465.53125 C 205.04444 485.81169 196.28863 507.61288 200.125 528.0625 C 204.23713 549.98206 236.00048 563.26187 277 560.1875 L 294.15625 558.875 L 295.40625 588.21875 C 296.86807 622.24539 298.89938 631.91854 305.09375 634.34375 C 309.22766 635.96225 329.48145 635.71517 433.96875 632.71875 C 476.49223 631.49929 479.34512 631.18615 483.34375 627.1875 C 489.20103 621.33023 490.89935 610.26456 491 577.625 L 491.09375 549.59375 L 498.53125 544.65625 C 516.74696 532.57721 531.59683 512.1667 537.78125 490.71875 C 542.7588 473.45639 541.22797 446.53443 534.40625 431.71875 C 522.90538 406.74065 501.7449 393.10531 475 392.875 z M 470.5625 406.40625 C 486.66717 406.369 498.57777 411.39027 509.90625 422.71875 C 523.28512 436.09762 527.52151 447.99545 526.5 469.3125 C 525.92925 481.22335 524.43468 487.39112 519.65625 497.46875 C 512.80311 511.92185 498.83753 528.41752 486 537.25 C 466.98293 550.33407 464.00204 541.52942 478.96875 516.59375 C 492.73524 493.65782 498.50497 481.52956 500 472.53125 C 500.68322 468.41913 500.86148 466.76587 499.53125 468.5 C 500.12674 467.65787 500.50201 467.125 500.59375 467.125 C 501.00917 467.125 500.92109 469.74909 500.40625 472.96875 C 499.21997 480.38725 492.45191 495.07925 482.125 512.625 C 466.93871 538.42698 466.562 546.81011 480.90625 539.34375 C 495.55276 531.72006 515.38276 508.00486 521.8125 490.4375 C 527.47145 474.97614 526.55228 449.5547 519.90625 437.34375 C 514.3551 427.14446 500.2103 414.34397 490.4375 410.6875 C 480.76626 407.06903 461.94386 406.6625 449.3125 409.8125 C 438.23392 412.57528 419.63824 422.23145 389.28125 440.96875 C 364.30513 456.3848 352.24027 462.87881 351.28125 461.125 L 355.71875 459.59375 C 359.22693 458.37078 369.89254 452.39172 379.4375 446.3125 C 430.42856 413.83612 441.63673 408.5438 463.40625 406.71875 C 465.88908 406.5106 468.26183 406.41157 470.5625 406.40625 z M 416.59375 410.125 L 403.21875 417.9375 C 389.33689 426.04959 365.38497 444.84024 355.21875 455.59375 L 352.375 458.59375 C 353.40967 457.18783 355.09552 455.29608 357.5 452.84375 C 366.54113 443.62272 393.73994 422.654 406.34375 415.1875 L 414.03125 410.625 L 404.84375 410.59375 C 378.20684 410.47929 366.26476 416.25062 326.8125 448.3125 C 322.03394 452.19591 317.39627 455.83917 312.9375 459.25 C 317.43467 455.57188 322.35941 451.46032 326.90625 447.5 C 361.65987 417.22935 375.47734 410.23125 400.75 410.15625 L 416.59375 410.125 z M 317.96875 436.0625 C 318.77323 436.06525 319.30407 436.17907 319.5 436.375 C 320.75133 437.62632 290.61107 467.07813 278.15625 476.78125 C 274.36915 479.73166 271.31967 482.477 270.09375 483.9375 C 270.69043 482.82659 272.2849 481.06009 274.625 479 C 292.6808 463.1047 310.28422 446.78822 313.71875 442.71875 C 317.5246 438.2093 317.53038 438.10108 314.53125 437.65625 C 309.88429 436.96703 289.34959 442.56771 279.34375 447.25 C 274.44611 449.54189 264.74056 455.33707 257.75 460.125 C 207.95662 494.22914 199.41898 534.70007 240.15625 543.5625 C 244.87197 544.58842 258.24398 545.4461 270.59375 545.5 C 292.60318 545.59612 292.6178 545.58323 297.8125 541.625 C 303.3913 537.37411 304.3384 533.71339 300.78125 530.15625 C 298.92754 528.30253 294.28786 527.9125 272.84375 527.875 C 256.49222 527.84639 250.59974 527.7362 249.40625 527 L 273.3125 526.75 C 294.45616 526.5348 299.2127 527.05645 301.9375 529.78125 C 306.79787 534.64163 302.68402 542.08368 293.46875 545.125 C 282.83031 548.63599 242.47176 546.75143 231.53125 542.21875 C 206.85196 531.99407 207.07345 507.79383 232.0625 480 C 242.64994 468.22423 268.90296 450.03916 283.78125 444.1875 C 293.39205 440.40755 312.33742 436.04327 317.96875 436.0625 z M 499.03125 469.21875 C 497.91616 470.88544 496.06704 474.10018 493.25 479.15625 C 469.79319 521.25702 447.41852 547.80682 438.3125 544.3125 C 434.57726 542.87917 434.9626 541.36458 446.78125 511.71875 C 451.05264 501.0044 454.3002 491.67757 454.75 489.03125 C 455.16128 490.88443 452.92986 497.33509 445.21875 517.8125 C 436.84895 540.03907 436.09903 543.46875 439.5625 543.46875 C 449.10538 543.46875 463.47332 526.69392 487.03125 488.09375 C 492.14545 479.71403 496.7252 472.57598 499.03125 469.21875 z M 396 473.125 C 396.27921 473.08748 396.576 473.45394 396.84375 474.1875 C 397.26962 475.35422 398.33979 486.79101 399.21875 499.625 C 400.09771 512.45899 401.3349 525.76146 401.96875 529.15625 C 403.35695 536.5912 407.3831 541 412.78125 541 C 418.37577 541 429.15076 528.95095 437.875 512.96875 C 447.89655 494.60998 451.99083 488.3155 453.875 488.3125 C 451.49092 489.67402 445.76195 498.76921 439.5 511.34375 C 424.05803 542.3526 408.55649 551.17002 401.78125 532.75 C 400.46767 529.17874 398.91018 513.30096 398.3125 497.5 C 397.0268 463.51089 394.79234 465.63832 391.90625 503.5625 C 389.7571 531.80328 387.1568 539.32736 378 544.0625 C 359.90873 553.41786 349.65593 543.54508 343.96875 511.34375 L 341.75 499 C 342.50157 500.92845 343.52595 504.81214 344.40625 509.46875 C 350.42838 541.32473 360.37357 551.96164 376.53125 543.84375 C 386.44447 538.86317 388.72475 531.63764 392.15625 494.875 C 393.48175 480.67457 394.7901 473.28759 396 473.125 z M 292.1875 474.21875 C 280.79556 481.81683 272.61384 485.97698 270.09375 485.125 C 270.06936 485.11675 270.05234 485.1045 270.03125 485.09375 C 272.53006 484.87782 283.06793 479.59756 292.1875 474.21875 z M 340.90625 497.6875 C 340.98919 497.63624 341.10526 497.70423 341.21875 497.84375 L 339.71875 517.3125 C 338.829 528.77594 336.9838 540.39561 335.625 543.125 C 330.32773 553.76552 322.62279 549.52681 311.3125 529.75 C 305.79806 520.10761 296.74165 516.64647 279.875 517.75 C 271.46061 518.3005 262.21333 520.34841 256.875 522.84375 L 249.21875 526.4375 C 249.33592 526.22062 249.58771 525.97588 249.96875 525.6875 C 255.35659 521.60987 272.13643 517.51374 283.9375 517.40625 C 299.55131 517.26403 305.30099 520.0018 313.0625 531.28125 C 316.33991 536.04415 320.62618 541.70475 322.59375 543.84375 C 330.2849 552.20503 334.77584 547.64188 337.65625 528.53125 C 338.81956 520.81303 339.77625 510.86404 339.78125 506.4375 C 339.78584 502.01095 340.28161 498.07355 340.90625 497.6875 z M 454.5625 553.65625 C 463.57457 553.59957 469.5354 553.69528 470.625 553.96875 C 471.30519 554.13946 471.93421 554.40027 472.5 554.78125 L 441.28125 554.8125 C 407.94827 554.82667 339.98838 556.91633 323.71875 558.4375 C 314.22696 559.32496 313.98943 559.45615 311.84375 564.5 C 309.9385 568.97869 309.86235 572.36525 311.28125 590.75 C 313.23055 616.0072 314.16941 618.0986 323.84375 618.71875 C 348.55526 620.3028 464.89223 616.85565 469.46875 614.40625 C 471.30028 613.42599 473.24603 610.4205 474.125 607.15625 C 476.21872 599.38077 476.42749 563.55248 474.40625 558.6875 L 472.90625 555.09375 C 476.87284 558.32329 477.84513 567.80441 476.6875 588.8125 C 475.27098 614.5196 474.33995 615.96885 458.84375 617.3125 C 452.0117 617.90491 417.83113 618.91164 382.875 619.53125 C 331.30701 620.4453 318.62826 620.14194 315.65625 617.96875 C 312.63793 615.76169 311.70123 611.16797 310.375 591.84375 C 308.69358 567.34384 309.78239 560.4415 315.65625 558.1875 C 319.34303 556.77275 415.51018 553.90185 454.5625 553.65625 z "
       id="path5377" />
  </g>
</svg>
