<?xml version="1.0" encoding="UTF-8" standalone="no"?>
<!-- Created with Inkscape (http://www.inkscape.org/) -->

<svg
   xmlns:osb="http://www.openswatchbook.org/uri/2009/osb"
   xmlns:dc="http://purl.org/dc/elements/1.1/"
   xmlns:cc="http://creativecommons.org/ns#"
   xmlns:rdf="http://www.w3.org/1999/02/22-rdf-syntax-ns#"
   xmlns:svg="http://www.w3.org/2000/svg"
   xmlns="http://www.w3.org/2000/svg"
   xmlns:sodipodi="http://sodipodi.sourceforge.net/DTD/sodipodi-0.dtd"
   xmlns:inkscape="http://www.inkscape.org/namespaces/inkscape"
   width="744.09448819"
   height="1052.3622047"
   id="svg2"
   version="1.1"
   inkscape:version="0.48.4 r9939"
   sodipodi:docname="New document 1">
  <defs
     id="defs4">
    <linearGradient
       id="linearGradient3777"
       inkscape:collect="always"
       osb:paint="gradient">
      <stop
         id="stop3779"
         offset="0"
         style="stop-color:#000000;stop-opacity:1;" />
      <stop
         id="stop3781"
         offset="1"
         style="stop-color:#000000;stop-opacity:0;" />
    </linearGradient>
  </defs>
  <sodipodi:namedview
     id="base"
     pagecolor="#ffffff"
     bordercolor="#666666"
     borderopacity="1.0"
     inkscape:pageopacity="0.0"
     inkscape:pageshadow="2"
     inkscape:zoom="0.70710678"
     inkscape:cx="428.02257"
     inkscape:cy="548.19956"
     inkscape:document-units="px"
     inkscape:current-layer="layer1"
     showgrid="false"
     inkscape:snap-bbox="false"
     inkscape:window-width="1680"
     inkscape:window-height="1026"
     inkscape:window-x="1920"
     inkscape:window-y="24"
     inkscape:window-maximized="1" />
  <metadata
     id="metadata7">
    <rdf:RDF>
      <cc:Work
         rdf:about="">
        <dc:format>image/svg+xml</dc:format>
        <dc:type
           rdf:resource="http://purl.org/dc/dcmitype/StillImage" />
        <dc:title></dc:title>
      </cc:Work>
    </rdf:RDF>
  </metadata>
  <g
     inkscape:label="Layer 1"
     inkscape:groupmode="layer"
     id="layer1">
    <path
       style="fill:#bbd2e0;fill-opacity:1;stroke:#a7a7af;stroke-width:15;stroke-linejoin:miter;stroke-miterlimit:4;stroke-dasharray:none;stroke-opacity:0.94117647"
       d="m 388.23679,257.68267 c -137.70857,0 -249.8125,114.35393 -248.5625,248.5625 l 0.0312,0.0312 0,248.53125 248.53125,0 c 0.19763,0 0.39604,6.3e-4 0.59375,0 117.02752,-0.37309 247.96875,-111.08619 247.96875,-248.5625 0,-137.70857 -110.85393,-248.5625 -248.5625,-248.5625 z"
       id="rect5243"
       inkscape:connector-curvature="0" />
    <path
       style="fill:#ffffff"
       d="m 305.10872,634.35795 c -6.19437,-2.42521 -8.22867,-12.11071 -9.69049,-46.13735 l -1.26026,-29.33445 -17.15973,1.28671 c -40.99952,3.07437 -72.76082,-10.19375 -76.87295,-32.11331 -3.83637,-20.44962 4.91043,-42.25517 25.08474,-62.53561 23.45213,-23.5755 53.00852,-37.53621 88.68355,-41.88891 15.12054,-1.84485 20.64486,-3.39055 25.08716,-7.01936 7.46593,-6.09878 13.41773,-9.08963 29.04097,-14.5935 11.12211,-3.91815 17.28532,-4.59988 44.66279,-4.94015 17.46812,-0.21714 38.57956,-1.53585 46.91431,-2.9305 33.99027,-5.68754 61.17074,7.96298 74.8014,37.56666 6.82172,14.81568 8.36979,41.7432 3.39224,59.00556 -6.18442,21.44795 -21.04043,41.86086 -39.25614,53.9399 l -7.4438,4.93605 -0.0865,28.02267 c -0.10065,32.63956 -1.81363,43.70752 -7.67091,49.56479 -3.99863,3.99865 -6.83305,4.31656 -49.35653,5.53602 -104.4873,2.99642 -124.736,3.25328 -128.86991,1.63478 z m 153.74293,-17.03762 c 15.4962,-1.34365 16.41084,-2.80653 17.82736,-28.51363 1.35397,-24.57121 -0.17249,-33.37911 -6.04019,-34.85179 -5.81118,-1.4585 -150.44654,2.49275 -154.98412,4.23398 -5.87386,2.254 -6.95503,9.1535 -5.27361,33.65341 1.32623,19.32422 2.25412,23.92277 5.27244,26.12983 2.97201,2.17319 15.65159,2.4659 67.21958,1.55185 34.95613,-0.61961 69.14649,-1.61124 75.97854,-2.20365 z M 335.62187,543.1171 c 1.3588,-2.72939 3.1985,-14.34172 4.08825,-25.80516 l 1.61768,-20.84264 2.62937,14.8876 c 5.68718,32.20133 15.96331,42.07446 34.05458,32.7191 9.1568,-4.73514 11.74423,-12.28189 13.89338,-40.52267 2.88609,-37.92418 5.11536,-40.02696 6.40106,-6.03785 0.59768,15.80096 2.16144,31.65095 3.47502,35.22221 6.77524,18.42002 22.29157,9.62806 37.73354,-21.38079 7.2668,-14.59236 13.82778,-24.51654 15.2608,-23.08351 0.53086,0.53082 -3.06643,11.07799 -7.99394,23.43815 -11.81865,29.64583 -12.21444,31.16754 -8.4792,32.60087 9.10602,3.49432 31.50394,-23.06062 54.96075,-65.16139 7.5121,-13.48286 7.96004,-13.92191 6.74543,-6.61148 -1.49503,8.99831 -7.28783,21.11964 -21.05432,44.05557 -14.96671,24.93567 -11.96024,33.73283 7.05683,20.64876 12.83753,-8.83248 26.78725,-25.32896 33.64039,-39.78206 4.77843,-10.07763 6.27792,-16.2414 6.84867,-28.15225 1.02151,-21.31705 -3.21372,-33.20831 -16.59259,-46.58718 -12.94683,-12.94683 -26.64137,-17.65573 -46.50404,-15.9905 -21.76952,1.82505 -32.96253,7.1018 -83.95359,39.57818 -9.54496,6.07922 -20.2248,12.0537 -23.73298,13.27667 l -6.3785,2.22355 5.86786,-6.20683 c 10.16622,-10.75351 34.14083,-29.56149 48.02269,-37.67358 l 13.36252,-7.80861 -15.84861,0.0471 c -25.27266,0.075 -39.08837,7.05953 -73.84199,37.33018 -10.06124,8.7634 -22.12019,18.5571 -26.79767,21.76376 -10.24551,7.02384 -29.41519,16.88308 -30.57375,15.72453 -0.4575,-0.45751 3.42764,-4.15025 8.63368,-8.20611 12.45482,-9.70312 42.58531,-39.16387 41.33398,-40.41519 -1.56741,-1.56743 -24.71772,3.50954 -35.70149,7.82948 -14.87829,5.85166 -41.15678,24.04172 -51.74422,35.81749 -24.98905,27.79383 -25.18604,51.97115 -0.50675,62.19583 10.94051,4.53268 51.28516,6.44286 61.9236,2.93187 9.21527,-3.04132 13.32809,-10.50379 8.46772,-15.36417 -2.7248,-2.7248 -7.49481,-3.22633 -28.63847,-3.01113 l -25.36912,0.25825 8.93256,-4.17546 c 5.33833,-2.49534 14.59783,-4.5461 23.01222,-5.0966 16.86665,-1.10353 25.93671,2.35691 31.45115,11.9993 11.31029,19.77681 19.00023,24.00728 24.2975,13.36676 z"
       id="path5377"
       inkscape:connector-curvature="0" />
  </g>
</svg>
